HIERARCHY
ROOT Hips
{
	OFFSET 0.000000 0.000000 0.000000
	CHANNELS 6 Xposition Yposition Zposition Zrotation Yrotation Xrotation 
	JOINT LHipJoint
	{
		OFFSET 0.000000 0.000000 0.000000
		CHANNELS 3 Zrotation Yrotation Xrotation
		JOINT LeftUpLeg
		{
			OFFSET 1.363060 -1.794630 0.839290
			CHANNELS 3 Zrotation Yrotation Xrotation
			JOINT LeftLeg
			{
				OFFSET 2.448110 -6.726130 0.000000
				CHANNELS 3 Zrotation Yrotation Xrotation
				JOINT LeftFoot
				{
					OFFSET 2.562200 -7.039590 0.000000
					CHANNELS 3 Zrotation Yrotation Xrotation
					JOINT LeftToeBase
					{
						OFFSET 0.157640 -0.433110 2.322550
						CHANNELS 3 Zrotation Yrotation Xrotation
						End Site
						{
							OFFSET 0.000000 0.000000 0.000000
						}
					}
				}
			}
		}
	}
	JOINT RHipJoint
	{
		OFFSET 0.000000 0.000000 0.000000
		CHANNELS 3 Zrotation Yrotation Xrotation
		JOINT RightUpLeg
		{
			OFFSET -1.305520 -1.794630 0.839290
			CHANNELS 3 Zrotation Yrotation Xrotation
			JOINT RightLeg
			{
				OFFSET -2.542530 -6.985550 0.000000
				CHANNELS 3 Zrotation Yrotation Xrotation
				JOINT RightFoot
				{
					OFFSET -2.568260 -7.056230 0.000000
					CHANNELS 3 Zrotation Yrotation Xrotation
					JOINT RightToeBase
					{
						OFFSET -0.164730 -0.452590 2.363150
						CHANNELS 3 Zrotation Yrotation Xrotation
						End Site
						{
							OFFSET 0.000000 0.000000 0.000000
						}
					}
				}
			}
		}
	}
	JOINT LowerBack
	{
		OFFSET 0.000000 0.000000 0.000000
		CHANNELS 3 Zrotation Yrotation Xrotation
		JOINT Spine
		{
			OFFSET 0.028270 2.035590 -0.193380
			CHANNELS 3 Zrotation Yrotation Xrotation
			JOINT Spine1
			{
				OFFSET 0.056720 2.048850 -0.042750
				CHANNELS 3 Zrotation Yrotation Xrotation
				JOINT Neck
				{
					OFFSET 0.000000 0.000000 0.000000
					CHANNELS 3 Zrotation Yrotation Xrotation
					JOINT Neck1
					{
						OFFSET -0.054170 1.746240 0.172020
						CHANNELS 3 Zrotation Yrotation Xrotation
						JOINT Head
						{
							OFFSET 0.104070 1.761360 -0.123970
							CHANNELS 3 Zrotation Yrotation Xrotation
							End Site
							{
								OFFSET 0.000000 0.000000 0.000000
							}
						}
					}
				}
				JOINT LeftShoulder
				{
					OFFSET 0.000000 0.000000 0.000000
					CHANNELS 3 Zrotation Yrotation Xrotation
					JOINT LeftArm
					{
						OFFSET 3.362410 1.200890 -0.311210
						CHANNELS 3 Zrotation Yrotation Xrotation
						JOINT LeftForeArm
						{
							OFFSET 4.983000 -0.000000 -0.000000
							CHANNELS 3 Zrotation Yrotation Xrotation
							JOINT LeftHand
							{
								OFFSET 3.483560 -0.000000 -0.000000
								CHANNELS 3 Zrotation Yrotation Xrotation
								JOINT LeftFingerBase
								{
									OFFSET 0.000000 0.000000 0.000000
									CHANNELS 3 Zrotation Yrotation Xrotation
									JOINT LeftHandIndex1
									{
										OFFSET 0.715260 -0.000000 -0.000000
										CHANNELS 3 Zrotation Yrotation Xrotation
										End Site
										{
											OFFSET 0.000000 0.000000 0.000000
										}
									}
								}
								JOINT LThumb
								{
									OFFSET 0.000000 0.000000 0.000000
									CHANNELS 3 Zrotation Yrotation Xrotation
									End Site
									{
										OFFSET 0.000000 0.000000 0.000000
									}
								}
							}
						}
					}
				}
				JOINT RightShoulder
				{
					OFFSET 0.000000 0.000000 0.000000
					CHANNELS 3 Zrotation Yrotation Xrotation
					JOINT RightArm
					{
						OFFSET -3.136600 1.374050 -0.404650
						CHANNELS 3 Zrotation Yrotation Xrotation
						JOINT RightForeArm
						{
							OFFSET -5.241900 -0.000000 -0.000000
							CHANNELS 3 Zrotation Yrotation Xrotation
							JOINT RightHand
							{
								OFFSET -3.444170 -0.000000 -0.000000
								CHANNELS 3 Zrotation Yrotation Xrotation
								JOINT RightFingerBase
								{
									OFFSET 0.000000 0.000000 0.000000
									CHANNELS 3 Zrotation Yrotation Xrotation
									JOINT RightHandIndex1
									{
										OFFSET -0.622530 -0.000000 -0.000000
										CHANNELS 3 Zrotation Yrotation Xrotation
										End Site
										{
											OFFSET 0.000000 0.000000 0.000000
										}
									}
								}
								JOINT RThumb
								{
									OFFSET 0.000000 0.000000 0.000000
									CHANNELS 3 Zrotation Yrotation Xrotation
									End Site
									{
										OFFSET 0.000000 0.000000 0.000000
									}
								}
							}
						}
					}
				}
			}
		}
	}
}
MOTION
Frames: 5
Frame Time: 0.008333
5.005461 18.151701 0.975370 25.595975 -83.250417 -27.438415 -10.132315 8.585125 4.693942 7.563372 22.228931 6.638865 -0.200032 0.871880 12.576375 2.058245 2.416143 40.935303 0.786600 -0.000000 -74.784400 11.980208 -6.214969 1.997633 -11.016478 -27.538657 16.173044 -0.494267 -0.955774 7.618387 -1.091263 4.976424 42.358679 4.099100 -0.000000 -84.947800 -6.537315 -3.160093 -11.679334 -1.399569 -2.551566 -4.821891 -2.371190 -2.748570 1.451016 8.264491 -21.799398 -13.460869 1.251237 0.242233 -1.721562 0.000000 0.000000 0.000000 14.077540 9.066983 3.388777 -33.005532 1.740425 -5.659124 -3.360952 -19.870415 -0.022446 1.077737 5.618206 0.062324 -0.213244 0.118375 0.000000 0.000000 0.000000 0.000000 0.000000 0.000000 0.000000 2.425801 -18.053840 3.052151 35.871628 10.580127 -21.281895 1.274325 29.804956 -0.017800 -4.421122 0.750618 -0.039831 0.126219 -0.261969 0.000000 0.000000 0.000000 0.000000 0.000000 0.000000 0.000000 
4.809152 18.365557 0.955338 25.291355 -83.292850 -27.643423 -10.086423 8.693630 4.958087 7.731441 21.337995 7.614503 -0.106404 0.849915 11.401951 2.147242 2.315823 42.779909 0.755800 -0.000000 -71.961400 11.964898 -6.294595 2.160906 -11.208105 -27.182499 16.781365 -0.568057 -0.952797 7.154238 -1.194576 5.699905 44.561330 4.799000 0.000000 -81.333800 -6.832699 -3.070170 -12.164141 -1.463786 -2.421663 -4.931105 -2.294787 -2.626822 1.407649 8.329609 -22.316490 -13.438813 1.371931 0.253031 -1.727780 0.000000 0.000000 0.000000 14.288998 9.176751 3.501776 -30.669744 1.560385 -4.724965 -3.229906 -21.330580 -0.019356 0.023301 5.837578 0.011207 -0.195868 0.117740 0.000000 0.000000 0.000000 0.000000 0.000000 0.000000 0.000000 2.421130 -18.404839 3.087077 33.546060 9.953784 -20.395913 1.162862 31.906451 -0.016454 -3.865403 0.425996 -0.023744 0.119597 -0.267854 0.000000 0.000000 0.000000 0.000000 0.000000 0.000000 0.000000 
4.622799 18.566819 0.936823 24.789715 -83.330086 -27.587545 -10.046531 8.752470 5.186882 7.757098 20.257918 8.315223 -0.004592 0.843368 10.828003 2.205279 2.513885 43.756454 0.925600 0.000000 -69.586300 11.936057 -6.329148 2.277627 -11.254681 -26.769052 17.106217 -0.646287 -0.958168 7.201675 -1.278698 5.925267 45.862801 5.074200 -0.000000 -78.452300 -7.081158 -2.991172 -12.541430 -1.516839 -2.310455 -5.018586 -2.223840 -2.523579 1.365951 8.414939 -22.808803 -13.464301 1.485997 0.264460 -1.748898 0.000000 0.000000 0.000000 14.475984 9.347042 3.628357 -28.404712 1.327113 -4.128233 -3.090007 -22.761276 -0.015870 -0.897300 5.937446 -0.036314 -0.177207 0.121359 0.000000 0.000000 0.000000 0.000000 0.000000 0.000000 0.000000 2.439407 -18.741913 3.123500 31.226190 9.377375 -19.773016 1.046545 33.942636 -0.015614 -3.481345 0.235275 -0.015659 0.113885 -0.276057 0.000000 0.000000 0.000000 0.000000 0.000000 0.000000 0.000000 
4.446608 18.754541 0.919367 24.141261 -83.355452 -27.323605 -10.013644 8.765116 5.375795 7.653482 19.041008 8.774067 0.102422 0.848897 10.772903 2.242270 2.979610 44.053950 1.279700 0.000000 -68.156400 11.900867 -6.322727 2.341923 -11.195385 -26.342804 17.201390 -0.728152 -0.972094 7.638925 -1.348804 5.663734 46.436863 4.925300 0.000001 -76.567400 -7.291244 -2.926467 -12.799754 -1.558942 -2.220989 -5.081023 -2.154683 -2.441817 1.328887 8.508759 -23.259816 -13.529858 1.596235 0.276624 -1.782228 0.000000 0.000000 0.000000 14.649506 9.583424 3.763392 -26.240825 1.050741 -3.899107 -2.945729 -24.123754 -0.012099 -1.663497 5.928789 -0.076037 -0.158410 0.129500 0.000000 0.000000 0.000000 0.000000 0.000000 0.000000 0.000000 2.451168 -19.052697 3.158674 28.960161 8.847743 -19.417826 0.928606 35.866066 -0.015484 -3.289725 0.161669 -0.012977 0.109813 -0.286456 -0.000000 0.000000 0.000000 0.000000 0.000000 0.000000 0.000000 
4.280626 18.928051 0.902526 23.394023 -83.364544 -26.917005 -9.990273 8.736816 5.512077 7.476486 17.827250 9.009934 0.204109 0.863855 11.173968 2.261008 3.537925 43.823727 1.685500 -0.000000 -67.327800 11.866374 -6.279646 2.349780 -11.092240 -25.974423 17.123267 -0.808693 -0.992824 8.353344 -1.406302 5.036167 46.429787 4.454200 0.000000 -75.521300 -7.471303 -2.877401 -12.925297 -1.590605 -2.154042 -5.115302 -2.083300 -2.382170 1.297481 8.594689 -23.647877 -13.623329 1.705143 0.289473 -1.823769 0.000000 0.000000 0.000000 14.821049 9.874291 3.901015 -24.209693 0.764920 -4.054153 -2.799986 -25.400309 -0.008168 -2.276107 5.834543 -0.105962 -0.140215 0.142003 0.000000 0.000000 0.000000 0.000000 0.000000 0.000000 0.000000 2.420779 -19.316731 3.190235 26.806421 8.342987 -19.330827 0.811568 37.640656 -0.016160 -3.282969 0.182251 -0.013896 0.107662 -0.298776 0.000000 0.000000 0.000000 0.000000 0.000000 0.000000 0.000000 
